#!OML:ASF I:\Actors\actors\Patient Classification 2\Patient 1\Session 1\actor1.ASF
:FULLY-SPECIFIED
:DEGREES
399
root -1.55244 18.1259 5.63282 2.34816 8.71308 -10.242
lowerback 22.9592 8.31567 -0.63047
upperback 3.75265 10.2207 -4.72722
thorax -7.69465 4.87702 -7.76233
lowerneck -12.7836 -14.3786 -9.45482
upperneck -3.61932 -18.4384 17.8653
head 3.58529 -8.64781 5.32026
rclavicle -2.46493e-014 5.08889e-014
rhumerus 39.2819 -37.4208 -68.73
rradius 36.0288
rwrist -44.1513
rhand -3.47929 -59.8814
rfingers 7.12502
rthumb 22.2539 -88.6201
lclavicle -2.46493e-014 5.08889e-014
lhumerus -47.6922 -20.3336 67.8041
lradius 95.428
lwrist 59.0428
lhand -2.88621 1.12313
lfingers 7.12502
lthumb 22.8232 29.7928
rfemur 11.3225 -8.46971 28.7597
rtibia -11.2082
rfoot -10.3318 -16.2387
rtoes 0.0489483
lfemur 16.2364 -6.82486 -3.32696
ltibia -31.0851
lfoot 10.3424 14.7748
ltoes -15.4368
400
root -1.479 18.1603 5.69527 3.12987 9.09357 -9.56739
lowerback 21.2937 7.78179 -0.932866
upperback 3.39155 9.5483 -4.53078
thorax -7.38974 4.5803 -6.97535
lowerneck -13.7256 -14.2531 -9.5723
upperneck -4.0319 -18.1243 18.0714
head 3.60255 -8.44402 5.39861
rclavicle -8.42847e-014 6.52014e-014
rhumerus 30.5969 -34.0237 -57.0645
rradius 39.7339
rwrist -49.8707
rhand -11.0579 -54.0201
rfingers 7.12502
rthumb 14.9647 -83.4595
lclavicle -8.42847e-014 6.52014e-014
lhumerus -45.0382 -21.6307 66.5073
lradius 95.4441
lwrist 58.9236
lhand -3.18048 1.29195
lfingers 7.12502
lthumb 22.5407 29.9962
rfemur 9.90986 -8.74648 27.8689
rtibia -9.39508
rfoot -11.3817 -15.6979
rtoes 0.281557
lfemur 15.0287 -6.99152 -4.21731
ltibia -29.9409
lfoot 9.37601 14.5279
ltoes -15.4444
401
root -1.39955 18.1839 5.74742 3.76975 9.59373 -8.98158
lowerback 19.7713 7.04399 -1.02927
upperback 3.0674 8.65014 -4.31543
thorax -7.08081 4.16703 -6.26851
lowerneck -14.8083 -13.8406 -9.01407
upperneck -4.14691 -17.5028 17.4567
head 3.53561 -8.10499 5.17476
rclavicle -6.44062e-014 1.43125e-014
rhumerus 24.8619 -29.0636 -46.9781
rradius 41.9134
rwrist -50.1849
rhand -6.09393 -50.6498
rfingers 7.12502
rthumb 19.7421 -79.6673
lclavicle -6.44062e-014 1.43125e-014
lhumerus -42.6166 -21.9732 65.0821
lradius 95.2008
lwrist 58.6072
lhand -2.59005 0.630694
lfingers 7.12502
lthumb 23.1074 29.265
rfemur 8.47959 -9.17627 27.003
rtibia -7.32049
rfoot -12.4732 -14.8974
rtoes 0.690141
lfemur 13.9239 -7.12172 -5.05945
ltibia -28.9303
lfoot 8.90548 14.0548
ltoes -16.929
402
root -1.32775 18.2106 5.80626 4.30032 10.2663 -8.46424
lowerback 18.3491 6.06595 -1.12089
upperback 2.79061 7.43775 -3.96675
thorax -6.78877 3.59751 -5.39033
lowerneck -16.1609 -13.1626 -8.1474
upperneck -3.8419 -16.574 15.9855
head 3.48672 -7.62436 4.6738
rclavicle 3.73715e-014 -6.36111e-015
rhumerus 21.0533 -23.5857 -38.6569
rradius 44.6556
rwrist -52.1239
rhand -1.96803 -49.6494
rfingers 7.12502
rthumb 23.7041 -78.2077
lclavicle 3.73715e-014 -6.36111e-015
lhumerus -40.5374 -21.3267 63.8148
lradius 94.5307
lwrist 57.5424
lhand -1.63585 -0.735891
lfingers 7.12502
lthumb 24.0226 27.7808
rfemur 6.92025 -9.81208 26.2398
rtibia -4.68229
rfoot -13.7757 -13.7913
rtoes 0.876337
lfemur 12.9949 -7.3743 -5.78143
ltibia -28.129
lfoot 8.5126 13.5713
ltoes -16.7481
403
root -1.26197 18.2242 5.85738 4.74724 10.585 -8.09685
lowerback 17.2908 5.11983 -0.976423
upperback 2.34528 6.27714 -3.68823
thorax -6.80142 3.0337 -4.82311
lowerneck -17.1044 -12.3017 -7.03854
upperneck -3.57287 -15.4784 14.2931
head 3.33165 -7.10392 4.11116
rclavicle 4.92986e-014 -4.77083e-014
rhumerus 18.534 -18.4323 -31.745
rradius 47.8319
rwrist -60.184
rhand -6.06919 -47.4408
rfingers 7.12502
rthumb 19.7658 -76.4558
lclavicle 4.92986e-014 -4.77083e-014
lhumerus -38.83 -20.6407 62.5709
lradius 93.94
lwrist 56.7971
lhand -1.36002 -1.57283
lfingers 7.12502
lthumb 24.2871 26.9087
rfemur 4.35902 -10.1445 25.7403
rtibia 4.77083e-015
rfoot -15.8049 -12.1049
rtoes 0.932561
lfemur 12.3582 -7.4853 -6.35213
ltibia -27.5166
lfoot 8.04095 13.4026
ltoes -16.1415
404
root -1.20367 18.2331 5.90051 4.93292 10.5079 -7.91326
lowerback 16.7176 4.24194 -0.696253
upperback 1.80613 5.19687 -3.47274
thorax -7.13802 2.49465 -4.49258
lowerneck -17.9884 -11.1861 -5.5091
upperneck -3.01763 -14.178 12.4314
head 3.22829 -6.49538 3.44573
rclavicle -1.43125e-014 9.54166e-015
rhumerus 18.5527 -17.1455 -29.511
rradius 48.6273
rwrist -63.2627
rhand -6.63383 -48.1503
rfingers 7.12502
rthumb 19.223 -77.2203
lclavicle -1.43125e-014 9.54166e-015
lhumerus -37.5434 -20.2235 61.2382
lradius 93.6413
lwrist 56.2985
lhand -1.65024 -1.97126
lfingers 7.12502
lthumb 24.0088 26.5472
rfemur 4.42496 -10.0725 25.3387
rtibia 1.74931e-014
rfoot -15.9669 -11.8486
rtoes 1.39491
lfemur 12.136 -7.34035 -6.77907
ltibia -26.9882
lfoot 7.58707 13.3293
ltoes -16.0037
405
root -1.1511 18.2396 5.94158 4.8516 10.0288 -7.7948
lowerback 16.5754 3.52423 -0.113499
upperback 1.2333 4.34556 -3.51437
thorax -7.68668 2.04727 -4.70316
lowerneck -18.7787 -10.1831 -4.09565
upperneck -2.18078 -13.1026 11.1698
head 3.31862 -5.97251 2.93298
rclavicle 3.02153e-014 -1.59028e-015
rhumerus 18.5855 -17.0796 -28.8612
rradius 49.3925
rwrist -63.9939
rhand -6.68324 -47.6257
rfingers 7.12502
rthumb 19.1754 -76.7003
lclavicle 3.02153e-014 -1.59028e-015
lhumerus -36.2146 -20.4862 59.6029
lradius 93.3733
lwrist 55.481
lhand -1.85825 -2.44488
lfingers 7.12502
lthumb 23.8093 26.0998
rfemur 4.75525 -9.6293 24.9955
rtibia -2.22639e-014
rfoot -16.2135 -11.7484
rtoes 1.70897
lfemur 12.4088 -7.05163 -7.17732
ltibia -26.5882
lfoot 7.08594 13.3939
ltoes -15.8603
406
root -1.09881 18.2461 5.97689 4.65906 9.088 -7.63647
lowerback 16.0955 3.02102 -0.353247
upperback 0.983887 3.67517 -3.10521
thorax -7.78245 1.73419 -3.95579
lowerneck -19.1038 -9.33107 -3.62219
upperneck -1.88169 -12.0663 10.845
head 3.3351 -5.45803 2.85778
rclavicle -4.37326e-015 -3.18055e-014
rhumerus 19.7669 -18.2938 -29.6246
rradius 49.9131
rwrist -62.2345
rhand -6.23996 -47.9188
rfingers 7.12502
rthumb 19.6017 -76.9506
lclavicle -4.37326e-015 -3.18055e-014
lhumerus -34.8134 -19.9746 58.6042
lradius 92.9727
lwrist 54.1939
lhand -1.7855 -2.84955
lfingers 7.12502
lthumb 23.8791 25.686
rfemur 5.16788 -8.74487 24.5991
rtibia 2.8625e-014
rfoot -16.4408 -11.8159
rtoes 1.72467
lfemur 12.9432 -6.6091 -7.66007
ltibia -26.1548
lfoot 6.45884 13.6738
ltoes -15.2796
407
root -1.0425 18.2432 6.00449 4.30355 7.72698 -7.45685
lowerback 15.9352 2.81246 -0.319872
upperback 0.759859 3.41981 -2.90712
thorax -7.96143 1.60811 -3.70573
lowerneck -19.3955 -8.73158 -3.3489
upperneck -1.49592 -11.3621 10.9172
head 3.44215 -5.0854 2.89429
rclavicle -6.83819e-014 5.40694e-014
rhumerus 20.3828 -20.4295 -31.125
rradius 50.4063
rwrist -59.7185
rhand -6.02339 -48.9066
rfingers 7.12502
rthumb 19.8099 -77.917
lclavicle -6.83819e-014 5.40694e-014
lhumerus -32.8945 -19.9545 57.5947
lradius 92.4426
lwrist 53.0548
lhand -1.66684 -3.40073
lfingers 7.12502
lthumb 23.9929 25.1199
rfemur 5.6962 -7.45553 24.1451
rtibia -6.36111e-015
rfoot -16.6288 -11.982
rtoes 1.5861
lfemur 13.7514 -6.02582 -8.22321
ltibia -25.6755
lfoot 5.70992 14.1336
ltoes -14.302
408
root -0.982459 18.2441 6.03429 3.86149 6.03297 -7.20637
lowerback 15.7289 2.83591 -0.439594
upperback 0.683805 3.44861 -2.69817
thorax -7.94728 1.62996 -3.40972
lowerneck -19.847 -8.06929 -2.75612
upperneck -0.999444 -10.6191 10.4381
head 3.54936 -4.71272 2.71469
rclavicle -3.22031e-014 -9.54166e-015
rhumerus 21.0859 -22.7151 -32.593
rradius 50.6919
rwrist -57.185
rhand -6.00877 -49.6867
rfingers 7.12502
rthumb 19.8239 -78.6957
lclavicle -3.22031e-014 -9.54166e-015
lhumerus -30.7002 -19.983 56.8174
lradius 91.8596
lwrist 52.1282
lhand -1.98847 -4.05153
lfingers 7.12502
lthumb 23.6845 24.5093
rfemur 6.28521 -5.83755 23.5932
rtibia 6.36111e-015
rfoot -16.7999 -12.1853
rtoes 1.2606
lfemur 14.724 -5.41902 -8.91337
ltibia -25.1381
lfoot 4.76971 14.844
ltoes -13.2499
409
root -0.924513 18.2436 6.06413 3.61111 4.26046 -6.88043
lowerback 15.3019 3.00644 -0.671733
upperback 0.628203 3.65738 -2.50056
thorax -7.78633 1.7457 -3.08641
lowerneck -20.3066 -7.51198 -2.11423
upperneck -0.544505 -10.014 9.76375
head 3.64487 -4.42066 2.4547
rclavicle 7.15625e-015 -7.95139e-015
rhumerus 21.9205 -24.7157 -33.4393
rradius 50.4124
rwrist -55.1458
rhand -6.07976 -50.0703
rfingers 7.12502
rthumb 19.7557 -79.0864
lclavicle 7.15625e-015 -7.95139e-015
lhumerus -28.3191 -20.168 56.2271
lradius 91.2826
lwrist 51.3117
lhand -2.866 -4.59875
lfingers 7.12502
lthumb 22.8426 24.0685
rfemur 6.62444 -4.1259 22.9977
rtibia 1.74931e-014
rfoot -16.8649 -12.3867
rtoes 0.860485
lfemur 15.477 -4.84846 -9.661
ltibia -24.5751
lfoot 3.76083 15.6947
ltoes -12.3207
410
root -0.872094 18.2436 6.08781 3.58178 2.62772 -6.56739
lowerback 14.774 3.17303 -0.894491
upperback 0.523234 3.86514 -2.31621
thorax -7.62353 1.86039 -2.77742
lowerneck -20.7758 -7.00626 -1.54337
upperneck -0.0679314 -9.47023 9.1335
head 3.76596 -4.15714 2.21184
rclavicle -2.38542e-014 -2.06736e-014
rhumerus 22.8965 -26.1769 -33.4857
rradius 49.5492
rwrist -53.9696
rhand -6.14581 -50.1468
rfingers 7.12502
rthumb 19.6922 -79.1693
lclavicle -2.38542e-014 -2.06736e-014
lhumerus -25.9938 -20.36 55.752
lradius 90.7531
lwrist 50.6034
lhand -3.58072 -5.11663
lfingers 7.12502
lthumb 22.1565 23.6337
rfemur 6.66317 -2.53775 22.4553
rtibia -3.18055e-015
rfoot -16.8169 -12.5321
rtoes 0.500979
lfemur 15.8635 -4.36776 -10.3352
ltibia -23.98
lfoot 2.81769 16.5144
ltoes -11.4469
411
root -0.824744 18.2431 6.11074 3.64232 1.19033 -6.26582
lowerback 14.2405 3.27302 -1.1237
upperback 0.385832 3.98419 -2.14821
thorax -7.49665 1.93158 -2.46464
lowerneck -21.2573 -6.4806 -0.978988
upperneck 0.500522 -8.91067 8.51388
head 3.925 -3.88368 1.97324
rclavicle 6.12257e-014 1.43125e-014
rhumerus 23.5486 -26.9071 -32.6537
rradius 48.7096
rwrist -53.5465
rhand -6.05935 -50.2422
rfingers 7.12502
rthumb 19.7753 -79.2562
lclavicle 6.12257e-014 1.43125e-014
lhumerus -23.9319 -20.4581 55.3433
lradius 90.2612
lwrist 49.9227
lhand -3.66496 -5.7125
lfingers 7.12502
lthumb 22.0757 23.0474
rfemur 6.59005 -1.13688 21.9313
rtibia -2.06736e-014
rfoot -16.7709 -12.5945
rtoes 0.174041
lfemur 16.0771 -4.0139 -10.9592
ltibia -23.4559
lfoot 1.96483 17.2915
ltoes -10.3833
412
root -0.783307 18.2407 6.13536 3.76495 -0.0603351 -6.02152
lowerback 13.6828 3.28435 -1.29607
upperback 0.195849 3.99432 -2.01415
thorax -7.40934 1.94708 -2.19901
lowerneck -21.6329 -5.89593 -0.220925
upperneck 1.11594 -8.31603 7.75156
head 4.07392 -3.60373 1.66638
rclavicle -1.59028e-015 1.27222e-014
rhumerus 23.3684 -26.8176 -31.0422
rradius 48.3029
rwrist -53.8461
rhand -5.9482 -50.225
rfingers 7.12502
rthumb 19.8821 -79.228
lclavicle -1.59028e-015 1.27222e-014
lhumerus -22.2062 -20.5355 54.925
lradius 89.8512
lwrist 49.2475
lhand -3.85739 -6.45107
lfingers 7.12502
lthumb 21.8909 22.3305
rfemur 6.44003 0.0813899 21.4846
rtibia 9.54166e-015
rfoot -16.7359 -12.6434
rtoes -0.283337
lfemur 16.1874 -3.72155 -11.4893
ltibia -23.0334
lfoot 1.22693 17.9872
ltoes -9.3574
